<svg width="124" height="45" viewBox="0 0 124 45" fill="none"
  xmlns="http://www.w3.org/2000/svg">
  <rect width="45" height="45" fill="#EB5757"/>
  <path d="M16.228 8.576V10.22H12.796V11.996H15.364V13.592H12.796V17H10.744V8.576H16.228Z" fill="#F2F2F2"/>
  <path d="M29.728 17.084C28.936 17.084 28.208 16.9 27.544 16.532C26.888 16.164 26.364 15.652 25.972 14.996C25.588 14.332 25.396 13.588 25.396 12.764C25.396 11.94 25.588 11.2 25.972 10.544C26.364 9.888 26.888 9.376 27.544 9.008C28.208 8.64 28.936 8.456 29.728 8.456C30.52 8.456 31.244 8.64 31.9 9.008C32.564 9.376 33.084 9.888 33.46 10.544C33.844 11.2 34.036 11.94 34.036 12.764C34.036 13.588 33.844 14.332 33.46 14.996C33.076 15.652 32.556 16.164 31.9 16.532C31.244 16.9 30.52 17.084 29.728 17.084ZM29.728 15.212C30.4 15.212 30.936 14.988 31.336 14.54C31.744 14.092 31.948 13.5 31.948 12.764C31.948 12.02 31.744 11.428 31.336 10.988C30.936 10.54 30.4 10.316 29.728 10.316C29.048 10.316 28.504 10.536 28.096 10.976C27.696 11.416 27.496 12.012 27.496 12.764C27.496 13.508 27.696 14.104 28.096 14.552C28.504 14.992 29.048 15.212 29.728 15.212Z" fill="#F2F2F2"/>
  <path d="M14.728 35.084C13.936 35.084 13.208 34.9 12.544 34.532C11.888 34.164 11.364 33.652 10.972 32.996C10.588 32.332 10.396 31.588 10.396 30.764C10.396 29.94 10.588 29.2 10.972 28.544C11.364 27.888 11.888 27.376 12.544 27.008C13.208 26.64 13.936 26.456 14.728 26.456C15.52 26.456 16.244 26.64 16.9 27.008C17.564 27.376 18.084 27.888 18.46 28.544C18.844 29.2 19.036 29.94 19.036 30.764C19.036 31.588 18.844 32.332 18.46 32.996C18.076 33.652 17.556 34.164 16.9 34.532C16.244 34.9 15.52 35.084 14.728 35.084ZM14.728 33.212C15.4 33.212 15.936 32.988 16.336 32.54C16.744 32.092 16.948 31.5 16.948 30.764C16.948 30.02 16.744 29.428 16.336 28.988C15.936 28.54 15.4 28.316 14.728 28.316C14.048 28.316 13.504 28.536 13.096 28.976C12.696 29.416 12.496 30.012 12.496 30.764C12.496 31.508 12.696 32.104 13.096 32.552C13.504 32.992 14.048 33.212 14.728 33.212Z" fill="#F2F2F2"/>
  <path d="M29.9 26.576C30.788 26.576 31.564 26.752 32.228 27.104C32.892 27.456 33.404 27.952 33.764 28.592C34.132 29.224 34.316 29.956 34.316 30.788C34.316 31.612 34.132 32.344 33.764 32.984C33.404 33.624 32.888 34.12 32.216 34.472C31.552 34.824 30.78 35 29.9 35H26.744V26.576H29.9ZM29.768 33.224C30.544 33.224 31.148 33.012 31.58 32.588C32.012 32.164 32.228 31.564 32.228 30.788C32.228 30.012 32.012 29.408 31.58 28.976C31.148 28.544 30.544 28.328 29.768 28.328H28.796V33.224H29.768Z" fill="#F2F2F2"/>
  <path d="M76 15.248V17.96H69.016V22.256H74.368V24.92H69.016V32H65.656V15.248H76ZM84.2866 32.216C83.0066 32.216 81.8546 31.936 80.8306 31.376C79.8066 30.8 78.9986 29.992 78.4066 28.952C77.8306 27.912 77.5426 26.712 77.5426 25.352C77.5426 23.992 77.8386 22.792 78.4306 21.752C79.0386 20.712 79.8626 19.912 80.9026 19.352C81.9426 18.776 83.1026 18.488 84.3826 18.488C85.6626 18.488 86.8226 18.776 87.8626 19.352C88.9026 19.912 89.7186 20.712 90.3106 21.752C90.9186 22.792 91.2226 23.992 91.2226 25.352C91.2226 26.712 90.9106 27.912 90.2866 28.952C89.6786 29.992 88.8466 30.8 87.7906 31.376C86.7506 31.936 85.5826 32.216 84.2866 32.216ZM84.2866 29.288C84.8946 29.288 85.4626 29.144 85.9906 28.856C86.5346 28.552 86.9666 28.104 87.2866 27.512C87.6066 26.92 87.7666 26.2 87.7666 25.352C87.7666 24.088 87.4306 23.12 86.7586 22.448C86.1026 21.76 85.2946 21.416 84.3346 21.416C83.3746 21.416 82.5666 21.76 81.9106 22.448C81.2706 23.12 80.9506 24.088 80.9506 25.352C80.9506 26.616 81.2626 27.592 81.8866 28.28C82.5266 28.952 83.3266 29.288 84.2866 29.288ZM99.5913 32.216C98.3113 32.216 97.1593 31.936 96.1353 31.376C95.1113 30.8 94.3033 29.992 93.7113 28.952C93.1353 27.912 92.8473 26.712 92.8473 25.352C92.8473 23.992 93.1433 22.792 93.7353 21.752C94.3433 20.712 95.1673 19.912 96.2073 19.352C97.2473 18.776 98.4073 18.488 99.6873 18.488C100.967 18.488 102.127 18.776 103.167 19.352C104.207 19.912 105.023 20.712 105.615 21.752C106.223 22.792 106.527 23.992 106.527 25.352C106.527 26.712 106.215 27.912 105.591 28.952C104.983 29.992 104.151 30.8 103.095 31.376C102.055 31.936 100.887 32.216 99.5913 32.216ZM99.5913 29.288C100.199 29.288 100.767 29.144 101.295 28.856C101.839 28.552 102.271 28.104 102.591 27.512C102.911 26.92 103.071 26.2 103.071 25.352C103.071 24.088 102.735 23.12 102.063 22.448C101.407 21.76 100.599 21.416 99.6393 21.416C98.6793 21.416 97.8713 21.76 97.2153 22.448C96.5753 23.12 96.2553 24.088 96.2553 25.352C96.2553 26.616 96.5673 27.592 97.1913 28.28C97.8313 28.952 98.6313 29.288 99.5913 29.288ZM108.128 25.304C108.128 23.96 108.392 22.768 108.92 21.728C109.464 20.688 110.2 19.888 111.128 19.328C112.056 18.768 113.088 18.488 114.224 18.488C115.088 18.488 115.912 18.68 116.696 19.064C117.48 19.432 118.104 19.928 118.568 20.552V14.24H121.976V32H118.568V30.032C118.152 30.688 117.568 31.216 116.816 31.616C116.064 32.016 115.192 32.216 114.2 32.216C113.08 32.216 112.056 31.928 111.128 31.352C110.2 30.776 109.464 29.968 108.92 28.928C108.392 27.872 108.128 26.664 108.128 25.304ZM118.592 25.352C118.592 24.536 118.432 23.84 118.112 23.264C117.792 22.672 117.36 22.224 116.816 21.92C116.272 21.6 115.688 21.44 115.064 21.44C114.44 21.44 113.864 21.592 113.336 21.896C112.808 22.2 112.376 22.648 112.04 23.24C111.72 23.816 111.56 24.504 111.56 25.304C111.56 26.104 111.72 26.808 112.04 27.416C112.376 28.008 112.808 28.464 113.336 28.784C113.88 29.104 114.456 29.264 115.064 29.264C115.688 29.264 116.272 29.112 116.816 28.808C117.36 28.488 117.792 28.04 118.112 27.464C118.432 26.872 118.592 26.168 118.592 25.352Z" fill="black"/>
</svg>
